<?xml version="1.0" encoding="UTF-8"?>
<!DOCTYPE svg PUBLIC "-//W3C//DTD SVG 1.1//EN" "http://www.w3.org/Graphics/SVG/1.1/DTD/svg11.dtd">
<!-- Creator: CorelDRAW -->
<svg xmlns="http://www.w3.org/2000/svg" xml:space="preserve" width="50px" height="50px" version="1.1" style="shape-rendering:geometricPrecision; text-rendering:geometricPrecision; image-rendering:optimizeQuality; fill-rule:evenodd; clip-rule:evenodd"
viewBox="0 0 76.29 76.29"
 xmlns:xlink="http://www.w3.org/1999/xlink"
 xmlns:xodm="http://www.corel.com/coreldraw/odm/2003">
 <defs>
  <style type="text/css">
   <![CDATA[
    .fil7 {fill:none}
    .fil1 {fill:url(#id1);fill-rule:nonzero}
    .fil6 {fill:url(#id2);fill-rule:nonzero}
    .fil3 {fill:url(#id3);fill-rule:nonzero}
    .fil2 {fill:url(#id4);fill-rule:nonzero}
    .fil0 {fill:url(#id5);fill-rule:nonzero}
    .fil5 {fill:url(#id6);fill-rule:nonzero}
    .fil4 {fill:url(#id7);fill-rule:nonzero}
   ]]>
  </style>
   <clipPath id="id0">
    <path d="M0 0l76.29 0 0 76.29 -76.29 0 0 -76.29z"/>
   </clipPath>
  <linearGradient id="id1" gradientUnits="objectBoundingBox" x1="0%" y1="49.9996%" x2="99.9907%" y2="49.9996%">
   <stop offset="0" style="stop-opacity:1; stop-color:#7E2AFF"/>
   <stop offset="1" style="stop-opacity:1; stop-color:#D12FFF"/>
  </linearGradient>
  <linearGradient id="id2" gradientUnits="userSpaceOnUse" x1="5.35" y1="51.71" x2="54.8" y2="51.71">
   <stop offset="0" style="stop-opacity:1; stop-color:#7E2AFF"/>
   <stop offset="1" style="stop-opacity:1; stop-color:#FD70FF"/>
  </linearGradient>
  <linearGradient id="id3" gradientUnits="userSpaceOnUse" x1="47.21" y1="43.28" x2="29.23" y2="7.88">
   <stop offset="0" style="stop-opacity:1; stop-color:#231672"/>
   <stop offset="0.388235" style="stop-opacity:1; stop-color:#6823B8"/>
   <stop offset="1" style="stop-opacity:1; stop-color:#AE31FF"/>
  </linearGradient>
  <linearGradient id="id4" gradientUnits="userSpaceOnUse" xlink:href="#id3" x1="53.11" y1="40.19" x2="41.88" y2="22.21">
  </linearGradient>
  <linearGradient id="id5" gradientUnits="userSpaceOnUse" xlink:href="#id1" x1="30.92" y1="37.94" x2="70.54" y2="37.94">
  </linearGradient>
  <linearGradient id="id6" gradientUnits="userSpaceOnUse" xlink:href="#id3" x1="43" y1="35.41" x2="72.5" y2="90.2">
  </linearGradient>
  <linearGradient id="id7" gradientUnits="userSpaceOnUse" xlink:href="#id3" x1="49.46" y1="41.31" x2="62.67" y2="65.76">
  </linearGradient>
 </defs>
 <g id="Capa_x0020_1">
  <metadata id="CorelCorpID_0Corel-Layer"/>
  <g>
  </g>
  <g style="clip-path:url(#id0)">
   <g id="_1444118681344">
    <g>
     <polygon class="fil0" points="54.47,38.14 38.15,7.14 31.14,20.44 40.46,38.14 56.79,69.15 70.79,69.15 "/>
     <path class="fil1" d="M5.5 69.15c8.91,-16.92 24.85,-30.89 41.38,-34.06 1.85,-0.36 3.71,-0.62 5.56,-0.78l6.17 11.71c-1.45,0.01 -2.9,0.11 -4.36,0.28 -13.53,1.5 -27.48,9.05 -34.75,22.85l-14 0 0 0z"/>
     <path class="fil1" d="M5.5 69.15c8.91,-16.92 24.85,-30.89 41.38,-34.06 1.85,-0.36 3.71,-0.62 5.56,-0.78l6.17 11.71c-1.45,0.01 -2.9,0.11 -4.36,0.28 -13.53,1.5 -27.48,9.05 -34.75,22.85l-14 0 0 0z"/>
     <path class="fil2" d="M46.88 35.09c1.85,-0.36 3.71,-0.62 5.57,-0.78l-14.3 -27.17 -7.01 13.3 8.76 16.64c2.31,-0.87 4.64,-1.54 6.98,-1.99z"/>
     <path class="fil3" d="M34.42 14.22l-3.28 6.22 8.76 16.64c1.87,-0.7 3.76,-1.27 5.66,-1.7l-11.14 -21.16 0 0z"/>
     <path class="fil4" d="M58.61 46.01c-1.44,0.02 -2.9,0.11 -4.36,0.28 -2.86,0.32 -5.73,0.91 -8.57,1.77l11.11 21.09 14 0 -12.18 -23.13 0 -0.01z"/>
     <path class="fil5" d="M45.68 48.06l11.11 21.09 7.95 0 -11.93 -22.66c-2.38,0.34 -4.77,0.86 -7.13,1.57l0 0z"/>
     <path class="fil6" d="M50.26 39.51c1.52,-0.3 3.05,-0.52 4.57,-0.68l-2.38 -4.53c-1.86,0.17 -3.72,0.43 -5.56,0.79 -16.54,3.16 -32.48,17.14 -41.39,34.05l5.91 0c9.21,-14.88 23.78,-26.75 38.86,-29.63l-0.01 0z"/>
    </g>
   </g>
  </g>
  <polygon class="fil7" points="0,0 76.29,0 76.29,76.29 0,76.29 "/>
 </g>
</svg>
